<svg version="1.1" id="Layer_1" xmlns="http://www.w3.org/2000/svg" xmlns:xlink="http://www.w3.org/1999/xlink" x="0px" y="0px"
	 width="100%" viewBox="0 0 1080 1080" enable-background="new 0 0 1080 1080" xml:space="preserve">
<path fill="#FFFFFF" opacity="1.000000" stroke="none" 
	d="
M1.000000,367.000000 
	C1.000000,244.680725 1.000000,122.861450 1.000000,1.021088 
	C360.944427,1.021088 720.888855,1.021088 1080.916626,1.021088 
	C1080.916626,360.902863 1080.916626,720.805725 1080.916626,1080.854248 
	C721.000061,1080.854248 361.000031,1080.854248 1.000000,1080.854248 
	C1.000000,843.110779 1.000000,605.305359 1.000000,367.000000 
M399.500000,19.998857 
	C273.081085,19.998857 146.662186,19.998857 20.387245,19.998857 
	C20.387245,367.739624 20.387245,714.792175 20.387245,1061.744873 
	C367.710388,1061.744873 714.645081,1061.744873 1061.700439,1061.744873 
	C1061.700439,714.436462 1061.700439,367.384033 1061.700439,19.998857 
	C841.100342,19.998857 620.800171,19.998857 399.500000,19.998857 
z"/>
<path fill="#34BD5C" opacity="1.000000" stroke="none" 
	d="
M400.000000,19.998857 
	C620.800171,19.998857 841.100342,19.998857 1061.700439,19.998857 
	C1061.700439,367.384033 1061.700439,714.436462 1061.700439,1061.744873 
	C714.645081,1061.744873 367.710388,1061.744873 20.387245,1061.744873 
	C20.387245,714.792175 20.387245,367.739624 20.387245,19.998857 
	C146.662186,19.998857 273.081085,19.998857 400.000000,19.998857 
M398.622589,828.711731 
	C423.295135,831.976318 447.993500,832.899231 472.859314,830.822083 
	C500.518372,828.511658 527.543335,823.204468 553.825806,814.500977 
	C584.226257,804.433716 612.878845,790.552673 639.464844,772.614075 
	C642.680481,770.444458 644.573669,770.797791 647.070618,773.497864 
	C675.891235,804.663330 704.786011,835.760315 733.679504,866.858459 
	C759.058289,894.174011 784.436768,921.489807 809.859314,948.764648 
	C831.314270,971.782837 852.270813,995.302734 874.488708,1017.561768 
	C894.516418,1037.626343 919.223511,1043.290283 946.188354,1034.029297 
	C986.509705,1020.181152 1005.050354,974.932007 993.815308,935.247742 
	C989.705017,920.729126 981.125366,908.986877 971.118896,898.179260 
	C927.803284,851.395569 884.396179,804.696716 841.003906,757.984070 
	C812.000183,726.760986 783.020996,695.514587 753.868225,664.431152 
	C750.564087,660.908142 750.766785,658.453308 753.186523,654.572388 
	C785.604553,602.577820 805.082520,545.932251 812.590942,485.250671 
	C816.403015,454.442291 816.753296,423.483185 813.707825,392.500977 
	C811.490723,369.945435 808.271545,347.507507 801.765015,325.861206 
	C795.376770,304.608490 787.865356,283.604126 779.420959,263.077332 
	C762.091553,220.952820 736.663452,183.806976 705.632202,150.682449 
	C668.889893,111.461632 625.645874,81.359085 575.738831,60.927834 
	C551.156677,50.864243 525.843262,43.497601 499.676971,39.404385 
	C472.643646,35.175545 445.456360,33.613682 418.036926,36.138153 
	C393.265808,38.418793 368.900085,42.648922 345.183838,49.910038 
	C320.686859,57.410175 297.129089,67.428276 274.794281,80.090721 
	C243.068527,98.077248 214.043518,119.729767 188.976807,146.241653 
	C167.617752,168.832108 146.470612,191.777649 132.247818,219.891769 
	C122.006042,240.136627 110.950516,260.101166 102.535133,281.103180 
	C93.352531,304.019958 86.645248,327.975433 82.877899,352.516052 
	C80.003464,371.240173 76.667549,390.007111 75.638252,408.869659 
	C74.561684,428.598602 75.521317,448.487000 76.454376,468.264984 
	C77.602043,492.591980 82.004646,516.544556 88.285599,540.015686 
	C97.019524,572.653198 109.020569,604.103394 125.327782,633.817810 
	C143.355881,666.668030 165.133331,696.764465 191.541748,723.359558 
	C209.737289,741.683655 229.488129,758.198303 251.060516,772.526611 
	C276.791931,789.617188 304.255768,803.105103 333.358429,813.341858 
	C354.283966,820.702332 375.788940,825.609802 398.622589,828.711731 
z"/>
<path fill="#FCFEFC" opacity="1.000000" stroke="none" 
	d="
M398.192505,828.619995 
	C375.788940,825.609802 354.283966,820.702332 333.358429,813.341858 
	C304.255768,803.105103 276.791931,789.617188 251.060516,772.526611 
	C229.488129,758.198303 209.737289,741.683655 191.541748,723.359558 
	C165.133331,696.764465 143.355881,666.668030 125.327782,633.817810 
	C109.020569,604.103394 97.019524,572.653198 88.285599,540.015686 
	C82.004646,516.544556 77.602043,492.591980 76.454376,468.264984 
	C75.521317,448.487000 74.561684,428.598602 75.638252,408.869659 
	C76.667549,390.007111 80.003464,371.240173 82.877899,352.516052 
	C86.645248,327.975433 93.352531,304.019958 102.535133,281.103180 
	C110.950516,260.101166 122.006042,240.136627 132.247818,219.891769 
	C146.470612,191.777649 167.617752,168.832108 188.976807,146.241653 
	C214.043518,119.729767 243.068527,98.077248 274.794281,80.090721 
	C297.129089,67.428276 320.686859,57.410175 345.183838,49.910038 
	C368.900085,42.648922 393.265808,38.418793 418.036926,36.138153 
	C445.456360,33.613682 472.643646,35.175545 499.676971,39.404385 
	C525.843262,43.497601 551.156677,50.864243 575.738831,60.927834 
	C625.645874,81.359085 668.889893,111.461632 705.632202,150.682449 
	C736.663452,183.806976 762.091553,220.952820 779.420959,263.077332 
	C787.865356,283.604126 795.376770,304.608490 801.765015,325.861206 
	C808.271545,347.507507 811.490723,369.945435 813.707825,392.500977 
	C816.753296,423.483185 816.403015,454.442291 812.590942,485.250671 
	C805.082520,545.932251 785.604553,602.577820 753.186523,654.572388 
	C750.766785,658.453308 750.564087,660.908142 753.868225,664.431152 
	C783.020996,695.514587 812.000183,726.760986 841.003906,757.984070 
	C884.396179,804.696716 927.803284,851.395569 971.118896,898.179260 
	C981.125366,908.986877 989.705017,920.729126 993.815308,935.247742 
	C1005.050354,974.932007 986.509705,1020.181152 946.188354,1034.029297 
	C919.223511,1043.290283 894.516418,1037.626343 874.488708,1017.561768 
	C852.270813,995.302734 831.314270,971.782837 809.859314,948.764648 
	C784.436768,921.489807 759.058289,894.174011 733.679504,866.858459 
	C704.786011,835.760315 675.891235,804.663330 647.070618,773.497864 
	C644.573669,770.797791 642.680481,770.444458 639.464844,772.614075 
	C612.878845,790.552673 584.226257,804.433716 553.825806,814.500977 
	C527.543335,823.204468 500.518372,828.511658 472.859314,830.822083 
	C447.993500,832.899231 423.295135,831.976318 398.192505,828.619995 
M698.171265,270.300201 
	C699.679871,270.135590 701.188477,269.970978 703.183044,269.753357 
	C702.182373,267.625214 701.657593,266.229095 700.911682,264.963196 
	C672.688660,217.065109 635.744751,177.783493 587.379517,149.684814 
	C547.534363,126.536049 504.620850,113.596573 458.664917,111.266197 
	C432.454865,109.937119 406.512451,112.708115 380.906067,118.721214 
	C349.061340,126.199242 319.487488,138.938812 291.990509,156.525772 
	C254.695969,180.379166 224.493195,211.415314 200.025208,248.158920 
	C172.856232,288.958588 156.712891,334.043518 149.117844,382.205597 
	C145.327133,406.243347 144.354385,430.521545 145.951569,454.914093 
	C147.347305,476.230225 150.316528,497.272491 155.524796,517.934631 
	C161.385117,541.183655 169.749451,563.577515 180.472672,585.066040 
	C202.990234,630.189514 234.092712,668.200073 274.395447,698.596985 
	C275.857086,699.699341 277.584351,700.449524 280.277496,701.985168 
	C280.277496,698.414978 280.277496,696.141724 280.277496,693.868469 
	C280.277496,562.372498 280.268555,430.876587 280.306000,299.380646 
	C280.307770,293.228394 280.612000,287.069611 280.975433,280.925751 
	C281.417023,273.460785 284.009857,270.928345 291.496704,270.373138 
	C293.486633,270.225586 295.494476,270.305573 297.494110,270.305542 
	C409.990631,270.303162 522.487183,270.305237 634.983704,270.289734 
	C637.208496,270.289429 639.433289,270.086334 642.413574,269.940979 
	C641.333679,268.024628 640.827148,266.842072 640.078857,265.840118 
	C628.687317,250.588989 616.034729,236.500809 601.430359,224.235916 
	C596.592224,220.172760 591.514465,216.381424 586.834656,212.147003 
	C581.902893,207.684601 581.518250,200.651459 585.529114,196.006989 
	C589.241516,191.708176 594.685364,191.540939 600.150818,195.948318 
	C607.141479,201.585678 614.089661,207.294067 620.786133,213.274231 
	C638.011047,228.656784 652.610901,246.325256 665.277832,265.588165 
	C667.527344,269.008972 670.054321,270.563538 674.247375,270.391632 
	C681.900940,270.077759 689.576538,270.302765 698.171265,270.300201 
M650.500000,553.203979 
	C672.496704,553.203979 694.493347,553.205017 716.490051,553.203369 
	C724.206482,553.202759 724.472595,553.271118 726.465271,545.836609 
	C731.362854,527.564697 736.071289,509.240845 740.685974,490.895172 
	C742.387085,484.132660 741.601685,483.346466 734.723633,483.345734 
	C686.557556,483.340729 638.391541,483.343658 590.225464,483.342590 
	C555.059265,483.341797 519.893066,483.361145 484.726868,483.320801 
	C476.299896,483.311127 472.129852,479.494049 472.077789,471.367279 
	C471.948578,451.201752 471.899811,431.033386 472.104553,410.869049 
	C472.198029,401.663208 476.348602,397.933228 485.452789,397.860138 
	C487.619293,397.842743 489.786041,397.851868 491.952667,397.851868 
	C573.284973,397.851532 654.617249,397.851532 735.949524,397.851501 
	C738.227661,397.851501 740.505859,397.851501 743.535278,397.851501 
	C742.928040,393.456451 742.224426,389.894287 742.002197,386.302368 
	C741.800842,383.047882 740.329651,382.066986 737.230164,382.138702 
	C729.400635,382.319916 721.554565,382.032135 713.738342,382.410950 
	C710.960938,382.545563 707.989319,383.620972 705.571655,385.052582 
	C702.083130,387.118225 698.531799,388.245605 695.412781,385.525299 
	C691.733276,382.316101 687.675903,382.164429 683.292847,382.165283 
	C558.294434,382.189697 433.296051,382.184692 308.297668,382.185486 
	C300.370758,382.185547 300.368439,382.189331 300.368408,389.926849 
	C300.367920,496.092163 300.368073,602.257446 300.368378,708.422791 
	C300.368378,709.756104 299.995026,711.242249 300.459015,712.388733 
	C301.258545,714.364319 302.137146,716.851624 303.764191,717.848999 
	C309.134521,721.140930 314.780609,724.014160 320.452820,726.777283 
	C350.121796,741.229797 381.263458,750.512451 414.125000,754.375366 
	C441.850708,757.634583 469.339142,756.511108 496.656403,751.451050 
	C519.266846,747.262939 541.112183,740.365479 562.077637,730.783508 
	C596.077026,715.244324 625.545166,693.334045 651.937073,667.084839 
	C653.120300,665.907959 653.895813,664.321289 655.549133,661.931091 
	C652.162109,661.931091 650.045532,661.931091 647.928894,661.931091 
	C548.263489,661.930969 448.598114,661.932007 348.932739,661.923767 
	C346.601868,661.923584 344.269897,661.848999 341.940369,661.758728 
	C332.677826,661.399780 330.098297,649.761169 334.948364,645.031311 
	C337.545715,642.498291 342.244385,640.974060 346.005371,640.953735 
	C394.836639,640.689392 443.669861,640.776550 492.502563,640.776062 
	C551.335144,640.775513 610.167786,640.734314 669.000122,640.858032 
	C673.492798,640.867432 676.545654,639.600342 678.878296,635.698547 
	C681.088562,632.001648 683.937195,628.692017 686.346985,625.105774 
	C687.185913,623.857117 687.552490,622.291016 688.134766,620.869873 
	C686.738647,620.561401 685.355774,620.126770 683.942871,619.978943 
	C682.459045,619.823669 680.946533,619.942383 679.446533,619.942383 
	C569.281250,619.942322 459.116028,619.943298 348.950775,619.934509 
	C346.620667,619.934326 344.262482,620.028320 341.965912,619.718628 
	C335.834778,618.891785 332.678589,615.277039 332.662170,609.374268 
	C332.646545,603.760925 336.165283,599.742310 342.045319,598.964111 
	C344.343018,598.660095 346.703339,598.788696 349.035126,598.788574 
	C462.200348,598.781921 575.365601,598.826355 688.530701,598.737427 
	C706.266418,598.723511 701.219055,601.443298 709.591003,585.692627 
	C711.311462,582.455994 712.740845,579.064636 714.724365,574.852600 
	C711.246948,574.852600 709.107422,574.852539 706.967896,574.852539 
	C587.969421,574.852539 468.970947,574.852661 349.972473,574.851257 
	C347.639221,574.851257 345.302216,574.914185 342.973511,574.806213 
	C337.301270,574.543213 332.996613,570.176758 332.763245,564.549500 
	C332.523651,558.772400 336.244629,554.209045 342.022919,553.498352 
	C344.655487,553.174622 347.341858,553.214966 350.003845,553.214600 
	C449.835907,553.202087 549.667969,553.204102 650.500000,553.203979 
M304.831543,361.029358 
	C429.284821,361.030487 553.738098,361.032104 678.191345,361.031555 
	C685.214294,361.031525 685.874817,360.234253 683.905151,353.675476 
	C678.060730,334.214417 670.304993,315.549530 660.870789,297.542145 
	C658.552551,293.117340 655.736023,291.689728 650.745300,291.696442 
	C536.288574,291.850220 421.831512,291.814911 307.374542,291.815186 
	C306.208313,291.815186 305.036743,291.893250 303.876984,291.807983 
	C301.262482,291.615906 300.350891,292.882141 300.355499,295.374634 
	C300.393372,315.866852 300.374756,336.359161 300.379639,356.851440 
	C300.380188,359.221436 300.800171,361.268921 304.831543,361.029358 
M736.869202,357.669830 
	C735.582397,352.866974 734.563049,347.972839 732.960327,343.277863 
	C727.450073,327.136871 721.771301,311.052856 716.026917,294.993561 
	C715.599243,293.798035 714.161072,292.123047 713.162842,292.102264 
	C702.922974,291.888916 692.676941,291.971497 682.466431,291.971497 
	C682.285583,293.024353 682.059998,293.532043 682.152893,293.972626 
	C682.321472,294.771881 682.596619,295.573914 682.970764,296.300903 
	C692.952942,315.697632 700.265564,336.077759 705.803833,357.154236 
	C706.224670,358.755615 708.842651,360.789795 710.527954,360.875244 
	C718.158752,361.262207 725.824646,361.126160 733.469299,360.895569 
	C734.645142,360.860107 735.776489,359.349030 736.869202,357.669830 
z"/>
<path fill="#36BE5E" opacity="1.000000" stroke="none" 
	d="
M697.707153,270.301575 
	C689.576538,270.302765 681.900940,270.077759 674.247375,270.391632 
	C670.054321,270.563538 667.527344,269.008972 665.277832,265.588165 
	C652.610901,246.325256 638.011047,228.656784 620.786133,213.274231 
	C614.089661,207.294067 607.141479,201.585678 600.150818,195.948318 
	C594.685364,191.540939 589.241516,191.708176 585.529114,196.006989 
	C581.518250,200.651459 581.902893,207.684601 586.834656,212.147003 
	C591.514465,216.381424 596.592224,220.172760 601.430359,224.235916 
	C616.034729,236.500809 628.687317,250.588989 640.078857,265.840118 
	C640.827148,266.842072 641.333679,268.024628 642.413574,269.940979 
	C639.433289,270.086334 637.208496,270.289429 634.983704,270.289734 
	C522.487183,270.305237 409.990631,270.303162 297.494110,270.305542 
	C295.494476,270.305573 293.486633,270.225586 291.496704,270.373138 
	C284.009857,270.928345 281.417023,273.460785 280.975433,280.925751 
	C280.612000,287.069611 280.307770,293.228394 280.306000,299.380646 
	C280.268555,430.876587 280.277496,562.372498 280.277496,693.868469 
	C280.277496,696.141724 280.277496,698.414978 280.277496,701.985168 
	C277.584351,700.449524 275.857086,699.699341 274.395447,698.596985 
	C234.092712,668.200073 202.990234,630.189514 180.472672,585.066040 
	C169.749451,563.577515 161.385117,541.183655 155.524796,517.934631 
	C150.316528,497.272491 147.347305,476.230225 145.951569,454.914093 
	C144.354385,430.521545 145.327133,406.243347 149.117844,382.205597 
	C156.712891,334.043518 172.856232,288.958588 200.025208,248.158920 
	C224.493195,211.415314 254.695969,180.379166 291.990509,156.525772 
	C319.487488,138.938812 349.061340,126.199242 380.906067,118.721214 
	C406.512451,112.708115 432.454865,109.937119 458.664917,111.266197 
	C504.620850,113.596573 547.534363,126.536049 587.379517,149.684814 
	C635.744751,177.783493 672.688660,217.065109 700.911682,264.963196 
	C701.657593,266.229095 702.182373,267.625214 703.183044,269.753357 
	C701.188477,269.970978 699.679871,270.135590 697.707153,270.301575 
M568.819153,175.717331 
	C553.625610,168.884903 538.605591,161.620972 523.161682,155.411133 
	C515.974731,152.521332 509.744995,156.867233 509.100494,163.472321 
	C508.475220,169.880096 510.431061,173.425568 516.455994,176.024826 
	C530.416382,182.047592 544.362122,188.117493 558.485657,193.736069 
	C560.852173,194.677505 564.505554,194.270889 566.830811,193.068588 
	C573.287903,189.729996 574.097900,182.834457 568.819153,175.717331 
z"/>
<path fill="#38BE5F" opacity="1.000000" stroke="none" 
	d="
M650.000000,553.204102 
	C549.667969,553.204102 449.835907,553.202087 350.003845,553.214600 
	C347.341858,553.214966 344.655487,553.174622 342.022919,553.498352 
	C336.244629,554.209045 332.523651,558.772400 332.763245,564.549500 
	C332.996613,570.176758 337.301270,574.543213 342.973511,574.806213 
	C345.302216,574.914185 347.639221,574.851257 349.972473,574.851257 
	C468.970947,574.852661 587.969421,574.852539 706.967896,574.852539 
	C709.107422,574.852539 711.246948,574.852600 714.724365,574.852600 
	C712.740845,579.064636 711.311462,582.455994 709.591003,585.692627 
	C701.219055,601.443298 706.266418,598.723511 688.530701,598.737427 
	C575.365601,598.826355 462.200348,598.781921 349.035126,598.788574 
	C346.703339,598.788696 344.343018,598.660095 342.045319,598.964111 
	C336.165283,599.742310 332.646545,603.760925 332.662170,609.374268 
	C332.678589,615.277039 335.834778,618.891785 341.965912,619.718628 
	C344.262482,620.028320 346.620667,619.934326 348.950775,619.934509 
	C459.116028,619.943298 569.281250,619.942322 679.446533,619.942383 
	C680.946533,619.942383 682.459045,619.823669 683.942871,619.978943 
	C685.355774,620.126770 686.738647,620.561401 688.134766,620.869873 
	C687.552490,622.291016 687.185913,623.857117 686.346985,625.105774 
	C683.937195,628.692017 681.088562,632.001648 678.878296,635.698547 
	C676.545654,639.600342 673.492798,640.867432 669.000122,640.858032 
	C610.167786,640.734314 551.335144,640.775513 492.502563,640.776062 
	C443.669861,640.776550 394.836639,640.689392 346.005371,640.953735 
	C342.244385,640.974060 337.545715,642.498291 334.948364,645.031311 
	C330.098297,649.761169 332.677826,661.399780 341.940369,661.758728 
	C344.269897,661.848999 346.601868,661.923584 348.932739,661.923767 
	C448.598114,661.932007 548.263489,661.930969 647.928894,661.931091 
	C650.045532,661.931091 652.162109,661.931091 655.549133,661.931091 
	C653.895813,664.321289 653.120300,665.907959 651.937073,667.084839 
	C625.545166,693.334045 596.077026,715.244324 562.077637,730.783508 
	C541.112183,740.365479 519.266846,747.262939 496.656403,751.451050 
	C469.339142,756.511108 441.850708,757.634583 414.125000,754.375366 
	C381.263458,750.512451 350.121796,741.229797 320.452820,726.777283 
	C314.780609,724.014160 309.134521,721.140930 303.764191,717.848999 
	C302.137146,716.851624 301.258545,714.364319 300.459015,712.388733 
	C299.995026,711.242249 300.368378,709.756104 300.368378,708.422791 
	C300.368073,602.257446 300.367920,496.092163 300.368408,389.926849 
	C300.368439,382.189331 300.370758,382.185547 308.297668,382.185486 
	C433.296051,382.184692 558.294434,382.189697 683.292847,382.165283 
	C687.675903,382.164429 691.733276,382.316101 695.412781,385.525299 
	C698.531799,388.245605 702.083130,387.118225 705.571655,385.052582 
	C707.989319,383.620972 710.960938,382.545563 713.738342,382.410950 
	C721.554565,382.032135 729.400635,382.319916 737.230164,382.138702 
	C740.329651,382.066986 741.800842,383.047882 742.002197,386.302368 
	C742.224426,389.894287 742.928040,393.456451 743.535278,397.851501 
	C740.505859,397.851501 738.227661,397.851501 735.949524,397.851501 
	C654.617249,397.851532 573.284973,397.851532 491.952667,397.851868 
	C489.786041,397.851868 487.619293,397.842743 485.452789,397.860138 
	C476.348602,397.933228 472.198029,401.663208 472.104553,410.869049 
	C471.899811,431.033386 471.948578,451.201752 472.077789,471.367279 
	C472.129852,479.494049 476.299896,483.311127 484.726868,483.320801 
	C519.893066,483.361145 555.059265,483.341797 590.225464,483.342590 
	C638.391541,483.343658 686.557556,483.340729 734.723633,483.345734 
	C741.601685,483.346466 742.387085,484.132660 740.685974,490.895172 
	C736.071289,509.240845 731.362854,527.564697 726.465271,545.836609 
	C724.472595,553.271118 724.206482,553.202759 716.490051,553.203369 
	C694.493347,553.205017 672.496704,553.203979 650.000000,553.204102 
M388.061218,455.787384 
	C398.953857,459.251190 407.855957,453.896118 409.711426,442.763672 
	C410.806793,436.191589 405.985474,427.593994 399.898560,425.264893 
	C393.359741,422.762939 385.498840,425.434174 381.551331,431.499542 
	C376.428375,439.371063 378.866577,449.299622 388.061218,455.787384 
M447.811249,454.519226 
	C452.883301,450.794250 455.225555,445.873535 454.829315,439.510895 
	C454.391785,432.485321 449.796692,426.380676 443.478271,424.906982 
	C436.242920,423.219421 430.158691,425.851166 426.656647,432.183258 
	C422.920807,438.938049 424.064453,447.595612 429.377075,452.777802 
	C434.249390,457.530457 441.014282,458.330841 447.811249,454.519226 
M351.108521,456.849030 
	C359.135254,455.305084 363.870331,449.741272 364.063019,441.627167 
	C364.262970,433.208527 359.751343,426.490265 352.857361,424.911682 
	C346.571747,423.472412 341.297424,425.150909 337.311523,430.227448 
	C333.252747,435.396851 332.796692,441.426880 335.061859,447.224426 
	C337.640167,453.823578 342.740387,457.532867 351.108521,456.849030 
z"/>
<path fill="#38BE5F" opacity="1.000000" stroke="none" 
	d="
M304.370819,361.026001 
	C300.800171,361.268921 300.380188,359.221436 300.379639,356.851440 
	C300.374756,336.359161 300.393372,315.866852 300.355499,295.374634 
	C300.350891,292.882141 301.262482,291.615906 303.876984,291.807983 
	C305.036743,291.893250 306.208313,291.815186 307.374542,291.815186 
	C421.831512,291.814911 536.288574,291.850220 650.745300,291.696442 
	C655.736023,291.689728 658.552551,293.117340 660.870789,297.542145 
	C670.304993,315.549530 678.060730,334.214417 683.905151,353.675476 
	C685.874817,360.234253 685.214294,361.031525 678.191345,361.031555 
	C553.738098,361.032104 429.284821,361.030487 304.370819,361.026001 
M389.149750,339.493225 
	C396.513275,342.057922 403.073578,339.815033 407.119629,333.170929 
	C410.823914,327.088104 410.849060,320.835693 406.963867,314.884766 
	C403.787933,310.020203 399.130798,307.024017 393.177368,307.550995 
	C386.023285,308.184235 380.114685,314.437958 379.065094,321.640869 
	C378.180603,327.710815 381.233917,336.607452 389.149750,339.493225 
M450.380371,335.875549 
	C451.406555,334.375916 452.649841,332.980011 453.423767,331.359863 
	C458.556458,320.614960 450.248352,306.669861 439.247559,307.455536 
	C432.892883,307.909393 426.559418,313.086975 425.080078,319.037384 
	C423.135803,326.857941 425.875916,334.470001 432.023743,338.326752 
	C437.951111,342.045258 443.580475,341.434662 450.380371,335.875549 
M334.196564,320.124542 
	C334.130829,321.284943 334.018463,322.444885 334.006897,323.605804 
	C333.929688,331.381561 337.508789,337.078735 344.116577,339.741364 
	C349.682922,341.984344 355.753632,340.261566 360.235016,335.167328 
	C364.608307,330.196045 365.433960,322.063965 362.351685,316.066925 
	C359.482361,310.484222 354.704987,307.388397 348.763977,307.595764 
	C341.459625,307.850677 336.583618,312.240601 334.196564,320.124542 
z"/>
<path fill="#3DC063" opacity="1.000000" stroke="none" 
	d="
M736.898804,358.095093 
	C735.776489,359.349030 734.645142,360.860107 733.469299,360.895569 
	C725.824646,361.126160 718.158752,361.262207 710.527954,360.875244 
	C708.842651,360.789795 706.224670,358.755615 705.803833,357.154236 
	C700.265564,336.077759 692.952942,315.697632 682.970764,296.300903 
	C682.596619,295.573914 682.321472,294.771881 682.152893,293.972626 
	C682.059998,293.532043 682.285583,293.024353 682.466431,291.971497 
	C692.676941,291.971497 702.922974,291.888916 713.162842,292.102264 
	C714.161072,292.123047 715.599243,293.798035 716.026917,294.993561 
	C721.771301,311.052856 727.450073,327.136871 732.960327,343.277863 
	C734.563049,347.972839 735.582397,352.866974 736.898804,358.095093 
z"/>
<path fill="#F5FCF7" opacity="1.000000" stroke="none" 
	d="
M569.110107,175.939240 
	C574.097900,182.834457 573.287903,189.729996 566.830811,193.068588 
	C564.505554,194.270889 560.852173,194.677505 558.485657,193.736069 
	C544.362122,188.117493 530.416382,182.047592 516.455994,176.024826 
	C510.431061,173.425568 508.475220,169.880096 509.100494,163.472321 
	C509.744995,156.867233 515.974731,152.521332 523.161682,155.411133 
	C538.605591,161.620972 553.625610,168.884903 569.110107,175.939240 
z"/>
<path fill="#F4FBF6" opacity="1.000000" stroke="none" 
	d="
M387.736176,455.574280 
	C378.866577,449.299622 376.428375,439.371063 381.551331,431.499542 
	C385.498840,425.434174 393.359741,422.762939 399.898560,425.264893 
	C405.985474,427.593994 410.806793,436.191589 409.711426,442.763672 
	C407.855957,453.896118 398.953857,459.251190 387.736176,455.574280 
z"/>
<path fill="#F5FCF7" opacity="1.000000" stroke="none" 
	d="
M447.478943,454.699707 
	C441.014282,458.330841 434.249390,457.530457 429.377075,452.777802 
	C424.064453,447.595612 422.920807,438.938049 426.656647,432.183258 
	C430.158691,425.851166 436.242920,423.219421 443.478271,424.906982 
	C449.796692,426.380676 454.391785,432.485321 454.829315,439.510895 
	C455.225555,445.873535 452.883301,450.794250 447.478943,454.699707 
z"/>
<path fill="#F6FCF7" opacity="1.000000" stroke="none" 
	d="
M350.685913,456.871552 
	C342.740387,457.532867 337.640167,453.823578 335.061859,447.224426 
	C332.796692,441.426880 333.252747,435.396851 337.311523,430.227448 
	C341.297424,425.150909 346.571747,423.472412 352.857361,424.911682 
	C359.751343,426.490265 364.262970,433.208527 364.063019,441.627167 
	C363.870331,449.741272 359.135254,455.305084 350.685913,456.871552 
z"/>
<path fill="#F4FBF6" opacity="1.000000" stroke="none" 
	d="
M388.807617,339.318848 
	C381.233917,336.607452 378.180603,327.710815 379.065094,321.640869 
	C380.114685,314.437958 386.023285,308.184235 393.177368,307.550995 
	C399.130798,307.024017 403.787933,310.020203 406.963867,314.884766 
	C410.849060,320.835693 410.823914,327.088104 407.119629,333.170929 
	C403.073578,339.815033 396.513275,342.057922 388.807617,339.318848 
z"/>
<path fill="#F5FCF7" opacity="1.000000" stroke="none" 
	d="
M450.118835,336.134003 
	C443.580475,341.434662 437.951111,342.045258 432.023743,338.326752 
	C425.875916,334.470001 423.135803,326.857941 425.080078,319.037384 
	C426.559418,313.086975 432.892883,307.909393 439.247559,307.455536 
	C450.248352,306.669861 458.556458,320.614960 453.423767,331.359863 
	C452.649841,332.980011 451.406555,334.375916 450.118835,336.134003 
z"/>
<path fill="#F5FCF7" opacity="1.000000" stroke="none" 
	d="
M334.257019,319.710358 
	C336.583618,312.240601 341.459625,307.850677 348.763977,307.595764 
	C354.704987,307.388397 359.482361,310.484222 362.351685,316.066925 
	C365.433960,322.063965 364.608307,330.196045 360.235016,335.167328 
	C355.753632,340.261566 349.682922,341.984344 344.116577,339.741364 
	C337.508789,337.078735 333.929688,331.381561 334.006897,323.605804 
	C334.018463,322.444885 334.130829,321.284943 334.257019,319.710358 
z"/>
</svg>