<svg xmlns="http://www.w3.org/2000/svg" xmlns:xlink="http://www.w3.org/1999/xlink" width="1080" zoomAndPan="magnify" viewBox="0 0 810 809.999993" height="1080" preserveAspectRatio="xMidYMid meet" version="1.2"><defs><clipPath id="101499ec8a"><path d="M 125 100.460938 L 685.238281 100.460938 L 685.238281 709.460938 L 125 709.460938 Z M 125 100.460938 "/></clipPath></defs><g id="6b964509de"><rect x="0" width="810" y="0" height="809.999993" style="fill:#ffffff;fill-opacity:1;stroke:none;"/><rect x="0" width="810" y="0" height="809.999993" style="fill:#34bd5c;fill-opacity:1;stroke:none;"/><g clip-rule="nonzero" clip-path="url(#101499ec8a)"><path style=" stroke:none;fill-rule:nonzero;fill:#ffffff;fill-opacity:1;" d="M 678.796875 636.683594 C 676.894531 633.210938 672.109375 627.363281 664.441406 619.105469 C 621.417969 572.835938 578.457031 526.628906 535.535156 480.5 C 535.226562 480.152344 535.1875 479.601562 535.433594 479.191406 C 554.714844 448.964844 566.941406 416 572.21875 380.234375 C 577.414062 344.9375 575.449219 310.050781 566.289062 275.488281 C 564.449219 268.519531 561.894531 261.796875 559.703125 255.03125 C 557.210938 247.328125 553.570312 240.03125 550.296875 232.507812 C 547.066406 225.132812 542.875 218.304688 538.96875 211.355469 C 535.617188 205.390625 531.445312 199.910156 527.601562 194.230469 C 522.980469 187.546875 517.640625 181.578125 512.40625 175.265625 C 507.828125 169.746094 502.59375 165.066406 497.460938 159.976562 C 494.761719 157.277344 491.9375 154.785156 489.074219 152.496094 C 483.328125 147.960938 477.765625 143.035156 471.632812 139.109375 C 464.699219 134.632812 458.117188 130.035156 450.835938 126.355469 C 445.089844 123.453125 439.324219 120.082031 433.476562 117.855469 C 426.195312 115.074219 419.160156 111.96875 411.882812 109.78125 C 393.683594 104.242188 375.035156 101.15625 355.996094 100.460938 L 344.382812 100.460938 C 325.546875 101.117188 307.105469 104.140625 289.089844 109.535156 C 281.625 111.765625 274.589844 114.828125 267.351562 117.570312 C 261.359375 119.855469 255.941406 123.046875 250.257812 125.84375 C 246.023438 127.949219 241.933594 130.320312 237.988281 132.917969 C 232.015625 136.863281 226.027344 140.480469 220.546875 144.914062 C 217.417969 147.449219 214.308594 149.941406 211.179688 152.476562 C 205.046875 157.359375 199.523438 163.144531 193.839844 168.703125 C 189.300781 173.136719 185.273438 178.328125 181.078125 183.152344 C 177.929688 186.832031 174.984375 190.632812 172.308594 194.617188 C 168.484375 200.199219 164.476562 205.511719 161.246094 211.296875 C 157.359375 218.164062 153.105469 225.050781 149.875 232.449219 C 146.644531 239.929688 143.003906 247.246094 140.46875 255.050781 C 138.28125 261.777344 135.683594 268.398438 133.925781 275.183594 C 122.25 319.714844 122.167969 364.1875 133.679688 408.640625 C 135.417969 415.304688 137.914062 422.148438 140.222656 428.914062 C 142.0625 434.289062 143.925781 439.113281 145.867188 443.40625 C 147.402344 446.777344 148.894531 450.128906 150.40625 453.523438 C 153.148438 459.613281 156.683594 465.417969 159.914062 471.160156 C 164.046875 478.621094 168.996094 485.40625 173.820312 492.3125 C 178.296875 498.730469 183.429688 504.308594 188.460938 510.296875 C 192.613281 515.265625 197.621094 519.761719 202.183594 524.296875 C 208.050781 530.121094 214.390625 534.800781 220.628906 539.972656 C 226.351562 544.652344 232.753906 548.351562 238.828125 552.460938 C 244.203125 556.058594 250.03125 558.671875 255.574219 561.71875 C 259.703125 563.945312 263.855469 565.886719 268.027344 567.480469 C 274.46875 569.976562 280.683594 572.671875 287.207031 574.695312 C 349.308594 593.785156 415.296875 584.015625 470.039062 546.941406 C 470.386719 546.695312 470.792969 546.777344 471.082031 547.042969 C 517.089844 596.542969 563.179688 646.066406 609.292969 695.605469 C 617.125 704.027344 627.082031 708.664062 639.1875 709.503906 L 642.171875 709.503906 C 657.019531 708.214844 668.429688 701.695312 676.464844 689.945312 C 680.964844 683.363281 683.703125 676.292969 684.726562 668.6875 C 686.261719 657.183594 684.277344 646.515625 678.859375 636.703125 Z M 350.066406 571.039062 C 232.628906 571.039062 137.421875 468.6875 137.421875 342.402344 C 137.421875 216.117188 232.628906 113.765625 350.066406 113.765625 C 467.503906 113.765625 562.710938 216.117188 562.710938 342.402344 C 562.710938 468.6875 467.503906 571.039062 350.066406 571.039062 Z M 350.066406 571.039062 "/></g><path style=" stroke:none;fill-rule:nonzero;fill:#ffffff;fill-opacity:1;" d="M 350.066406 113.765625 C 232.628906 113.765625 137.421875 216.117188 137.421875 342.402344 C 137.421875 468.6875 232.628906 571.039062 350.066406 571.039062 C 467.503906 571.039062 562.710938 468.6875 562.710938 342.402344 C 562.710938 216.117188 467.503906 113.765625 350.066406 113.765625 Z M 350.066406 551.378906 C 242.710938 551.378906 155.683594 457.835938 155.683594 342.402344 C 155.683594 226.972656 242.730469 133.429688 350.066406 133.429688 C 457.402344 133.429688 544.449219 226.972656 544.449219 342.402344 C 544.449219 457.835938 457.421875 551.378906 350.066406 551.378906 Z M 350.066406 551.378906 "/><path style=" stroke:none;fill-rule:nonzero;fill:#ffffff;fill-opacity:1;" d="M 350.066406 133.429688 C 242.730469 133.429688 155.703125 226.972656 155.703125 342.402344 C 155.703125 457.835938 242.730469 551.378906 350.085938 551.378906 C 457.441406 551.378906 544.46875 457.835938 544.46875 342.402344 C 544.46875 226.972656 457.421875 133.429688 350.066406 133.429688 Z M 514.0625 256.75 C 519.992188 269.808594 524.53125 283.605469 527.621094 297.828125 C 527.683594 298.132812 527.578125 298.320312 527.230469 298.320312 L 509.484375 298.320312 C 509.09375 298.320312 508.847656 298.113281 508.746094 297.683594 C 505.25 283.234375 500.136719 269.644531 493.453125 256.851562 C 493.207031 256.339844 493.347656 256.09375 493.859375 256.09375 L 513.039062 256.09375 C 513.492188 256.09375 513.839844 256.300781 514.042969 256.75 Z M 496.128906 297.890625 C 496.191406 298.175781 496.089844 298.296875 495.84375 298.296875 L 262.402344 298.296875 C 262.15625 298.296875 261.996094 298.09375 261.996094 297.847656 L 261.996094 256.566406 C 261.996094 256.277344 262.199219 256.074219 262.445312 256.074219 L 478.238281 256.074219 C 478.726562 256.074219 479.074219 256.277344 479.320312 256.707031 C 486.640625 269.5 492.429688 283.460938 496.128906 297.890625 Z M 250.644531 247.082031 C 250.238281 248.164062 250.011719 250.371094 250.011719 253.703125 C 250.050781 337.722656 250.050781 421.742188 250.011719 505.71875 C 250.011719 505.761719 250.011719 505.78125 249.96875 505.863281 C 249.910156 505.964844 249.765625 506.003906 249.664062 505.902344 C 224.449219 487.816406 204.65625 464.722656 190.261719 436.640625 C 174.167969 405.226562 166.726562 371.445312 167.890625 335.1875 C 168.175781 326.769531 168.890625 318.695312 170.140625 310.929688 C 176.621094 269.953125 193.207031 234.839844 219.789062 205.550781 C 242.8125 180.210938 270.417969 162.777344 302.585938 153.210938 C 309.722656 151.105469 316.980469 149.511719 324.320312 148.429688 C 362.5 142.890625 398.34375 149.183594 431.878906 167.3125 C 463.042969 184.195312 488.09375 209.292969 506.949219 242.566406 C 507.191406 243.015625 507.089844 243.257812 506.601562 243.257812 L 486.210938 243.257812 C 485.824219 243.257812 485.558594 243.097656 485.3125 242.75 C 474.046875 225.132812 460.078125 210.070312 443.433594 197.539062 C 436.257812 192.125 429.589844 203.078125 436.664062 208.394531 C 449.570312 218.101562 460.835938 229.648438 470.445312 242.992188 C 470.488281 243.035156 470.488281 243.054688 470.488281 243.097656 C 470.488281 243.199219 470.425781 243.257812 470.34375 243.257812 L 256.617188 243.257812 C 253.527344 243.257812 251.523438 244.507812 250.625 247.082031 Z M 366.445312 365.703125 C 366.445312 369.828125 369 372.589844 372.660156 372.589844 C 425.359375 372.628906 477.644531 372.628906 529.523438 372.589844 C 530.011719 372.589844 530.21875 372.875 530.15625 373.34375 C 528.050781 387.34375 524.53125 401.039062 519.625 414.382812 C 519.480469 414.792969 519.175781 415.039062 518.765625 415.039062 L 288.476562 415.039062 C 279.417969 415.039062 279.601562 428.179688 288.1875 428.179688 L 513.777344 428.179688 C 513.878906 428.242188 513.921875 428.425781 513.839844 428.527344 L 507.007812 442.160156 C 506.804688 442.546875 506.496094 442.75 506.066406 442.75 L 288.1875 442.75 C 279.457031 442.75 279.558594 455.546875 287.902344 455.546875 L 498.15625 455.546875 C 498.664062 455.546875 498.789062 455.789062 498.460938 456.199219 L 490.136719 467.765625 C 489.894531 468.113281 489.546875 468.277344 489.175781 468.277344 L 287.945312 468.277344 C 279.558594 468.277344 279.660156 481.070312 287.738281 481.070312 C 351.089844 481.113281 414.5 481.113281 477.953125 481.113281 C 478.441406 481.113281 478.503906 481.277344 478.15625 481.625 C 449.160156 511.953125 415.195312 530.183594 376.21875 536.355469 C 337 542.570312 297.269531 534.515625 262.464844 514.28125 C 262.179688 514.121094 262.015625 513.792969 262.015625 513.484375 L 262.015625 311.625 C 262.015625 311.378906 262.179688 311.132812 262.464844 311.132812 L 498.441406 311.132812 C 499.339844 311.132812 500.078125 311.519531 500.691406 312.214844 C 503.042969 314.953125 507.109375 314.648438 509.300781 311.808594 C 509.585938 311.398438 510.054688 311.175781 510.503906 311.175781 L 529.746094 311.132812 C 530.035156 311.132812 530.15625 311.277344 530.195312 311.542969 L 531.300781 320.65625 C 531.34375 320.757812 531.300781 320.800781 531.199219 320.800781 C 478.460938 320.800781 425.765625 320.839844 373.03125 320.800781 C 368.492188 320.800781 366.445312 323.988281 366.445312 328.566406 C 366.40625 342.257812 366.445312 354.625 366.488281 365.679688 Z M 366.445312 365.703125 "/><path style=" stroke:none;fill-rule:nonzero;fill:#ffffff;fill-opacity:1;" d="M 402.722656 189.304688 C 399.960938 188.242188 397.179688 187.21875 394.417969 186.28125 C 392.761719 185.707031 391.433594 184.929688 390.453125 183.910156 C 387.140625 180.476562 388.816406 174.363281 393.253906 173.21875 C 394.601562 172.871094 396.238281 173.054688 398.140625 173.730469 C 409 177.59375 417.730469 181.457031 424.316406 185.277344 C 430.816406 189.078125 425.460938 199.890625 418.464844 196.558594 C 413.191406 194.046875 408.058594 191.367188 402.742188 189.304688 Z M 402.722656 189.304688 "/><path style=" stroke:none;fill-rule:nonzero;fill:#ffffff;fill-opacity:1;" d="M 300.867188 275.898438 C 300.867188 276.550781 300.808594 277.195312 300.691406 277.835938 C 300.570312 278.476562 300.394531 279.097656 300.164062 279.699219 C 299.929688 280.300781 299.648438 280.875 299.308594 281.417969 C 298.972656 281.960938 298.589844 282.460938 298.160156 282.921875 C 297.730469 283.382812 297.265625 283.796875 296.757812 284.15625 C 296.253906 284.519531 295.722656 284.824219 295.160156 285.074219 C 294.601562 285.324219 294.023438 285.511719 293.425781 285.640625 C 292.832031 285.769531 292.230469 285.832031 291.625 285.832031 C 291.015625 285.832031 290.417969 285.769531 289.820312 285.640625 C 289.226562 285.511719 288.648438 285.324219 288.085938 285.074219 C 287.527344 284.824219 286.992188 284.519531 286.488281 284.15625 C 285.984375 283.796875 285.519531 283.382812 285.089844 282.921875 C 284.660156 282.460938 284.277344 281.960938 283.9375 281.417969 C 283.601562 280.875 283.316406 280.300781 283.085938 279.699219 C 282.851562 279.097656 282.675781 278.476562 282.558594 277.835938 C 282.441406 277.195312 282.382812 276.550781 282.382812 275.898438 C 282.382812 275.246094 282.441406 274.601562 282.558594 273.960938 C 282.675781 273.320312 282.851562 272.699219 283.085938 272.097656 C 283.316406 271.496094 283.601562 270.921875 283.9375 270.378906 C 284.277344 269.839844 284.660156 269.335938 285.089844 268.875 C 285.519531 268.414062 285.984375 268.003906 286.488281 267.640625 C 286.992188 267.277344 287.527344 266.972656 288.085938 266.722656 C 288.648438 266.472656 289.226562 266.285156 289.820312 266.15625 C 290.417969 266.03125 291.015625 265.964844 291.625 265.964844 C 292.230469 265.964844 292.832031 266.03125 293.425781 266.15625 C 294.023438 266.285156 294.601562 266.472656 295.160156 266.722656 C 295.722656 266.972656 296.253906 267.277344 296.757812 267.640625 C 297.265625 268.003906 297.730469 268.414062 298.160156 268.875 C 298.589844 269.335938 298.972656 269.839844 299.308594 270.378906 C 299.648438 270.921875 299.929688 271.496094 300.164062 272.097656 C 300.394531 272.699219 300.570312 273.320312 300.691406 273.960938 C 300.808594 274.601562 300.867188 275.246094 300.867188 275.898438 Z M 300.867188 275.898438 "/><path style=" stroke:none;fill-rule:nonzero;fill:#ffffff;fill-opacity:1;" d="M 328.390625 275.898438 C 328.390625 276.550781 328.332031 277.195312 328.214844 277.835938 C 328.09375 278.476562 327.917969 279.097656 327.6875 279.699219 C 327.453125 280.300781 327.171875 280.875 326.832031 281.417969 C 326.496094 281.960938 326.113281 282.460938 325.683594 282.921875 C 325.253906 283.382812 324.789062 283.796875 324.28125 284.15625 C 323.777344 284.519531 323.246094 284.824219 322.683594 285.074219 C 322.125 285.324219 321.546875 285.511719 320.953125 285.640625 C 320.355469 285.769531 319.753906 285.832031 319.148438 285.832031 C 318.542969 285.832031 317.941406 285.769531 317.34375 285.640625 C 316.75 285.511719 316.171875 285.324219 315.609375 285.074219 C 315.050781 284.824219 314.519531 284.519531 314.011719 284.15625 C 313.507812 283.796875 313.042969 283.382812 312.613281 282.921875 C 312.183594 282.460938 311.800781 281.960938 311.464844 281.417969 C 311.125 280.875 310.839844 280.300781 310.609375 279.699219 C 310.375 279.097656 310.203125 278.476562 310.082031 277.835938 C 309.964844 277.195312 309.90625 276.550781 309.90625 275.898438 C 309.90625 275.246094 309.964844 274.601562 310.082031 273.960938 C 310.203125 273.320312 310.375 272.699219 310.609375 272.097656 C 310.839844 271.496094 311.125 270.921875 311.464844 270.378906 C 311.800781 269.839844 312.183594 269.335938 312.613281 268.875 C 313.042969 268.414062 313.507812 268.003906 314.011719 267.640625 C 314.519531 267.277344 315.050781 266.972656 315.609375 266.722656 C 316.171875 266.472656 316.75 266.285156 317.34375 266.15625 C 317.941406 266.03125 318.542969 265.964844 319.148438 265.964844 C 319.753906 265.964844 320.355469 266.03125 320.953125 266.15625 C 321.546875 266.285156 322.125 266.472656 322.683594 266.722656 C 323.246094 266.972656 323.777344 267.277344 324.28125 267.640625 C 324.789062 268.003906 325.253906 268.414062 325.683594 268.875 C 326.113281 269.335938 326.496094 269.839844 326.832031 270.378906 C 327.171875 270.921875 327.453125 271.496094 327.6875 272.097656 C 327.917969 272.699219 328.09375 273.320312 328.214844 273.960938 C 328.332031 274.601562 328.390625 275.246094 328.390625 275.898438 Z M 328.390625 275.898438 "/><path style=" stroke:none;fill-rule:nonzero;fill:#ffffff;fill-opacity:1;" d="M 355.933594 275.898438 C 355.933594 276.550781 355.875 277.195312 355.757812 277.835938 C 355.640625 278.476562 355.464844 279.097656 355.230469 279.699219 C 355 280.300781 354.714844 280.875 354.378906 281.417969 C 354.039062 281.960938 353.65625 282.460938 353.226562 282.921875 C 352.796875 283.382812 352.332031 283.796875 351.828125 284.15625 C 351.324219 284.519531 350.789062 284.824219 350.230469 285.074219 C 349.667969 285.324219 349.089844 285.511719 348.496094 285.640625 C 347.898438 285.769531 347.300781 285.832031 346.691406 285.832031 C 346.085938 285.832031 345.484375 285.769531 344.890625 285.640625 C 344.292969 285.511719 343.714844 285.324219 343.15625 285.074219 C 342.59375 284.824219 342.0625 284.519531 341.558594 284.15625 C 341.050781 283.796875 340.585938 283.382812 340.15625 282.921875 C 339.726562 282.460938 339.34375 281.960938 339.007812 281.417969 C 338.671875 280.875 338.386719 280.300781 338.152344 279.699219 C 337.921875 279.097656 337.746094 278.476562 337.628906 277.835938 C 337.507812 277.195312 337.449219 276.550781 337.449219 275.898438 C 337.449219 275.246094 337.507812 274.601562 337.628906 273.960938 C 337.746094 273.320312 337.921875 272.699219 338.152344 272.097656 C 338.386719 271.496094 338.671875 270.921875 339.007812 270.378906 C 339.34375 269.839844 339.726562 269.335938 340.15625 268.875 C 340.585938 268.414062 341.050781 268.003906 341.558594 267.640625 C 342.0625 267.277344 342.59375 266.972656 343.15625 266.722656 C 343.714844 266.472656 344.292969 266.285156 344.890625 266.15625 C 345.484375 266.03125 346.085938 265.964844 346.691406 265.964844 C 347.300781 265.964844 347.898438 266.03125 348.496094 266.15625 C 349.089844 266.285156 349.667969 266.472656 350.230469 266.722656 C 350.789062 266.972656 351.324219 267.277344 351.828125 267.640625 C 352.332031 268.003906 352.796875 268.414062 353.226562 268.875 C 353.65625 269.335938 354.039062 269.839844 354.378906 270.378906 C 354.714844 270.921875 355 271.496094 355.230469 272.097656 C 355.464844 272.699219 355.640625 273.320312 355.757812 273.960938 C 355.875 274.601562 355.933594 275.246094 355.933594 275.898438 Z M 355.933594 275.898438 "/><path style=" stroke:none;fill-rule:nonzero;fill:#ffffff;fill-opacity:1;" d="M 300.867188 346.714844 C 300.867188 347.367188 300.808594 348.011719 300.691406 348.652344 C 300.570312 349.292969 300.394531 349.914062 300.164062 350.515625 C 299.929688 351.117188 299.648438 351.691406 299.308594 352.234375 C 298.972656 352.777344 298.589844 353.277344 298.160156 353.738281 C 297.730469 354.199219 297.265625 354.609375 296.757812 354.972656 C 296.253906 355.335938 295.722656 355.640625 295.160156 355.890625 C 294.601562 356.140625 294.023438 356.328125 293.425781 356.457031 C 292.832031 356.582031 292.230469 356.648438 291.625 356.648438 C 291.015625 356.648438 290.417969 356.582031 289.820312 356.457031 C 289.226562 356.328125 288.648438 356.140625 288.085938 355.890625 C 287.527344 355.640625 286.992188 355.335938 286.488281 354.972656 C 285.984375 354.609375 285.519531 354.199219 285.089844 353.738281 C 284.660156 353.277344 284.277344 352.777344 283.9375 352.234375 C 283.601562 351.691406 283.316406 351.117188 283.085938 350.515625 C 282.851562 349.914062 282.675781 349.292969 282.558594 348.652344 C 282.441406 348.011719 282.382812 347.367188 282.382812 346.714844 C 282.382812 346.0625 282.441406 345.417969 282.558594 344.777344 C 282.675781 344.136719 282.851562 343.515625 283.085938 342.914062 C 283.316406 342.3125 283.601562 341.738281 283.9375 341.195312 C 284.277344 340.652344 284.660156 340.152344 285.089844 339.691406 C 285.519531 339.230469 285.984375 338.820312 286.488281 338.457031 C 286.992188 338.09375 287.527344 337.789062 288.085938 337.539062 C 288.648438 337.289062 289.226562 337.101562 289.820312 336.972656 C 290.417969 336.847656 291.015625 336.78125 291.625 336.78125 C 292.230469 336.78125 292.832031 336.847656 293.425781 336.972656 C 294.023438 337.101562 294.601562 337.289062 295.160156 337.539062 C 295.722656 337.789062 296.253906 338.09375 296.757812 338.457031 C 297.265625 338.820312 297.730469 339.230469 298.160156 339.691406 C 298.589844 340.152344 298.972656 340.652344 299.308594 341.195312 C 299.648438 341.738281 299.929688 342.3125 300.164062 342.914062 C 300.394531 343.515625 300.570312 344.136719 300.691406 344.777344 C 300.808594 345.417969 300.867188 346.0625 300.867188 346.714844 Z M 300.867188 346.714844 "/><path style=" stroke:none;fill-rule:nonzero;fill:#ffffff;fill-opacity:1;" d="M 328.390625 346.714844 C 328.390625 347.367188 328.332031 348.011719 328.214844 348.652344 C 328.09375 349.292969 327.917969 349.914062 327.6875 350.515625 C 327.453125 351.117188 327.171875 351.691406 326.832031 352.234375 C 326.496094 352.777344 326.113281 353.277344 325.683594 353.738281 C 325.253906 354.199219 324.789062 354.609375 324.28125 354.972656 C 323.777344 355.335938 323.246094 355.640625 322.683594 355.890625 C 322.125 356.140625 321.546875 356.328125 320.953125 356.457031 C 320.355469 356.582031 319.753906 356.648438 319.148438 356.648438 C 318.542969 356.648438 317.941406 356.582031 317.34375 356.457031 C 316.75 356.328125 316.171875 356.140625 315.609375 355.890625 C 315.050781 355.640625 314.519531 355.335938 314.011719 354.972656 C 313.507812 354.609375 313.042969 354.199219 312.613281 353.738281 C 312.183594 353.277344 311.800781 352.777344 311.464844 352.234375 C 311.125 351.691406 310.839844 351.117188 310.609375 350.515625 C 310.375 349.914062 310.203125 349.292969 310.082031 348.652344 C 309.964844 348.011719 309.90625 347.367188 309.90625 346.714844 C 309.90625 346.0625 309.964844 345.417969 310.082031 344.777344 C 310.203125 344.136719 310.375 343.515625 310.609375 342.914062 C 310.839844 342.3125 311.125 341.738281 311.464844 341.195312 C 311.800781 340.652344 312.183594 340.152344 312.613281 339.691406 C 313.042969 339.230469 313.507812 338.820312 314.011719 338.457031 C 314.519531 338.09375 315.050781 337.789062 315.609375 337.539062 C 316.171875 337.289062 316.75 337.101562 317.34375 336.972656 C 317.941406 336.847656 318.542969 336.78125 319.148438 336.78125 C 319.753906 336.78125 320.355469 336.847656 320.953125 336.972656 C 321.546875 337.101562 322.125 337.289062 322.683594 337.539062 C 323.246094 337.789062 323.777344 338.09375 324.28125 338.457031 C 324.789062 338.820312 325.253906 339.230469 325.683594 339.691406 C 326.113281 340.152344 326.496094 340.652344 326.832031 341.195312 C 327.171875 341.738281 327.453125 342.3125 327.6875 342.914062 C 327.917969 343.515625 328.09375 344.136719 328.214844 344.777344 C 328.332031 345.417969 328.390625 346.0625 328.390625 346.714844 Z M 328.390625 346.714844 "/><path style=" stroke:none;fill-rule:nonzero;fill:#ffffff;fill-opacity:1;" d="M 355.933594 346.714844 C 355.933594 347.367188 355.875 348.011719 355.757812 348.652344 C 355.640625 349.292969 355.464844 349.914062 355.230469 350.515625 C 355 351.117188 354.714844 351.691406 354.378906 352.234375 C 354.039062 352.777344 353.65625 353.277344 353.226562 353.738281 C 352.796875 354.199219 352.332031 354.609375 351.828125 354.972656 C 351.324219 355.335938 350.789062 355.640625 350.230469 355.890625 C 349.667969 356.140625 349.089844 356.328125 348.496094 356.457031 C 347.898438 356.582031 347.300781 356.648438 346.691406 356.648438 C 346.085938 356.648438 345.484375 356.582031 344.890625 356.457031 C 344.292969 356.328125 343.714844 356.140625 343.15625 355.890625 C 342.59375 355.640625 342.0625 355.335938 341.558594 354.972656 C 341.050781 354.609375 340.585938 354.199219 340.15625 353.738281 C 339.726562 353.277344 339.34375 352.777344 339.007812 352.234375 C 338.671875 351.691406 338.386719 351.117188 338.152344 350.515625 C 337.921875 349.914062 337.746094 349.292969 337.628906 348.652344 C 337.507812 348.011719 337.449219 347.367188 337.449219 346.714844 C 337.449219 346.0625 337.507812 345.417969 337.628906 344.777344 C 337.746094 344.136719 337.921875 343.515625 338.152344 342.914062 C 338.386719 342.3125 338.671875 341.738281 339.007812 341.195312 C 339.34375 340.652344 339.726562 340.152344 340.15625 339.691406 C 340.585938 339.230469 341.050781 338.820312 341.558594 338.457031 C 342.0625 338.09375 342.59375 337.789062 343.15625 337.539062 C 343.714844 337.289062 344.292969 337.101562 344.890625 336.972656 C 345.484375 336.847656 346.085938 336.78125 346.691406 336.78125 C 347.300781 336.78125 347.898438 336.847656 348.496094 336.972656 C 349.089844 337.101562 349.667969 337.289062 350.230469 337.539062 C 350.789062 337.789062 351.324219 338.09375 351.828125 338.457031 C 352.332031 338.820312 352.796875 339.230469 353.226562 339.691406 C 353.65625 340.152344 354.039062 340.652344 354.378906 341.195312 C 354.714844 341.738281 355 342.3125 355.230469 342.914062 C 355.464844 343.515625 355.640625 344.136719 355.757812 344.777344 C 355.875 345.417969 355.933594 346.0625 355.933594 346.714844 Z M 355.933594 346.714844 "/></g></svg>