<?xml version="1.0" encoding="UTF-8"?>
<svg id="Capa_2" data-name="Capa 2" xmlns="http://www.w3.org/2000/svg" viewBox="0 0 273.9 297.98">
  <defs>
    <style>
      .cls-1 {
        fill: #fff;
        stroke-width: 0px;
      }
    </style>
  </defs>
  <g id="Capa_1-2" data-name="Capa 1">
    <g>
      <path class="cls-1" d="m270.79,262.37c-.93-1.7-3.27-4.56-7.02-8.6-21.04-22.64-42.05-45.25-63.04-67.82-.15-.17-.17-.44-.05-.64,9.43-14.79,15.41-30.92,17.99-48.42,2.54-17.27,1.58-34.34-2.9-51.25-.9-3.41-2.15-6.7-3.22-10.01-1.22-3.77-3-7.34-4.6-11.02-1.58-3.61-3.63-6.95-5.54-10.35-1.64-2.92-3.68-5.6-5.56-8.38-2.26-3.27-4.87-6.19-7.43-9.28-2.24-2.7-4.8-4.99-7.31-7.48-1.32-1.32-2.7-2.54-4.1-3.66-2.81-2.22-5.53-4.63-8.53-6.55-3.39-2.19-6.61-4.44-10.17-6.24-2.81-1.42-5.63-3.07-8.49-4.16-3.56-1.36-7-2.88-10.56-3.95-8.9-2.71-18.02-4.22-27.33-4.56h-5.68c-9.21.32-18.23,1.8-27.04,4.44-3.65,1.09-7.09,2.59-10.63,3.93-2.93,1.12-5.58,2.68-8.36,4.05-2.07,1.03-4.07,2.19-6,3.46-2.92,1.93-5.85,3.7-8.53,5.87-1.53,1.24-3.05,2.46-4.58,3.7-3,2.39-5.7,5.22-8.48,7.94-2.22,2.17-4.19,4.71-6.24,7.07-1.54,1.8-2.98,3.66-4.29,5.61-1.87,2.73-3.83,5.33-5.41,8.16-1.9,3.36-3.98,6.73-5.56,10.35-1.58,3.66-3.36,7.24-4.6,11.06-1.07,3.29-2.34,6.53-3.2,9.85-5.71,21.79-5.75,43.55-.12,65.3.85,3.26,2.07,6.61,3.2,9.92.9,2.63,1.81,4.99,2.76,7.09.75,1.65,1.48,3.29,2.22,4.95,1.34,2.98,3.07,5.82,4.65,8.63,2.02,3.65,4.44,6.97,6.8,10.35,2.19,3.14,4.7,5.87,7.16,8.8,2.03,2.43,4.48,4.63,6.71,6.85,2.87,2.85,5.97,5.14,9.02,7.67,2.8,2.29,5.93,4.1,8.9,6.11,2.63,1.76,5.48,3.04,8.19,4.53,2.02,1.09,4.05,2.04,6.09,2.82,3.15,1.22,6.19,2.54,9.38,3.53,30.37,9.34,62.64,4.56,89.41-13.58.17-.12.37-.08.51.05,22.5,24.22,45.04,48.45,67.59,72.69,3.83,4.12,8.7,6.39,14.62,6.8h1.46c7.26-.63,12.84-3.82,16.77-9.57,2.2-3.22,3.54-6.68,4.04-10.4.75-5.63-.22-10.85-2.87-15.65Zm-160.76-32.12c-57.43,0-103.99-50.08-103.99-111.87S52.6,6.51,110.03,6.51s103.99,50.08,103.99,111.87-46.56,111.87-103.99,111.87Z"/>
      <path class="cls-1" d="m110.03,6.51C52.6,6.51,6.04,56.59,6.04,118.38s46.56,111.87,103.99,111.87,103.99-50.08,103.99-111.87S167.46,6.51,110.03,6.51Zm0,214.12c-52.5,0-95.06-45.77-95.06-102.25S57.54,16.13,110.03,16.13s95.06,45.77,95.06,102.25-42.56,102.25-95.06,102.25Z"/>
      <path class="cls-1" d="m110.03,16.13C57.54,16.13,14.98,61.9,14.98,118.38s42.56,102.25,95.06,102.25,95.06-45.77,95.06-102.25S162.53,16.13,110.03,16.13Zm80.2,60.34c2.9,6.39,5.12,13.14,6.63,20.1.03.15-.02.24-.19.24h-8.68c-.19,0-.31-.1-.36-.31-1.71-7.07-4.21-13.72-7.48-19.98-.12-.25-.05-.37.2-.37h9.38c.22,0,.39.1.49.32Zm-8.77,20.13c.03.14-.02.2-.14.2h-114.16c-.12,0-.2-.1-.2-.22v-20.2c0-.14.1-.24.22-.24h105.53c.24,0,.41.1.53.31,3.58,6.26,6.41,13.09,8.22,20.15Zm-120.05-24.86c-.2.53-.31,1.61-.31,3.24.02,41.11.02,82.22,0,123.31,0,.02,0,.03-.02.07-.03.05-.1.07-.15.02-12.33-8.85-22.01-20.15-29.05-33.89-7.87-15.37-11.51-31.9-10.94-49.64.14-4.12.49-8.07,1.1-11.87,3.17-20.05,11.28-37.23,24.28-51.56,11.26-12.4,24.76-20.93,40.49-25.61,3.49-1.03,7.04-1.81,10.63-2.34,18.67-2.71,36.2.37,52.6,9.24,15.24,8.26,27.49,20.54,36.71,36.82.12.22.07.34-.17.34h-9.97c-.19,0-.32-.08-.44-.25-5.51-8.62-12.34-15.99-20.48-22.12-3.51-2.65-6.77,2.71-3.31,5.31,6.31,4.75,11.82,10.4,16.52,16.93.02.02.02.03.02.05,0,.05-.03.08-.07.08h-104.52c-1.51,0-2.49.61-2.93,1.87Zm56.63,58.04c0,2.02,1.25,3.37,3.04,3.37,25.77.02,51.34.02,76.71,0,.24,0,.34.14.31.37-1.03,6.85-2.75,13.55-5.15,20.08-.07.2-.22.32-.42.32h-112.62c-4.43,0-4.34,6.43-.14,6.43h110.32c.05.03.07.12.03.17l-3.34,6.67c-.1.19-.25.29-.46.29h-106.55c-4.27,0-4.22,6.26-.14,6.26h102.82c.25,0,.31.12.15.32l-4.07,5.66c-.12.17-.29.25-.47.25h-98.41c-4.1,0-4.05,6.26-.1,6.26,30.98.02,61.99.02,93.02.02.24,0,.27.08.1.25-14.18,14.84-30.79,23.76-49.85,26.78-19.18,3.04-38.61-.9-55.63-10.8-.14-.08-.22-.24-.22-.39v-98.77c0-.12.08-.24.22-.24h115.4c.44,0,.8.19,1.1.53,1.15,1.34,3.14,1.19,4.21-.2.14-.2.37-.31.59-.31l9.41-.02c.14,0,.2.07.22.2l.54,4.46c.02.05,0,.07-.05.07-25.79,0-51.56.02-77.35,0-2.22,0-3.22,1.56-3.22,3.8-.02,6.7,0,12.75.02,18.16Z"/>
      <path class="cls-1" d="m135.78,43.47c-1.35-.52-2.71-1.02-4.06-1.48-.81-.28-1.46-.66-1.94-1.16-1.62-1.68-.8-4.67,1.37-5.23.66-.17,1.46-.08,2.39.25,5.31,1.89,9.58,3.78,12.8,5.65,3.18,1.86.56,7.15-2.86,5.52-2.58-1.23-5.09-2.54-7.69-3.55Z"/>
      <ellipse class="cls-1" cx="81.45" cy="85.84" rx="4.52" ry="4.86"/>
      <ellipse class="cls-1" cx="94.91" cy="85.84" rx="4.52" ry="4.86"/>
      <ellipse class="cls-1" cx="108.38" cy="85.84" rx="4.52" ry="4.86"/>
      <ellipse class="cls-1" cx="81.45" cy="120.49" rx="4.52" ry="4.86"/>
      <ellipse class="cls-1" cx="94.91" cy="120.49" rx="4.52" ry="4.86"/>
      <ellipse class="cls-1" cx="108.38" cy="120.49" rx="4.52" ry="4.86"/>
    </g>
  </g>
</svg>